<?xml version="1.0" encoding="iso-8859-1"?>
<!-- Generator: Adobe Illustrator 19.0.0, SVG Export Plug-In . SVG Version: 6.00 Build 0)  -->
<svg xmlns="http://www.w3.org/2000/svg" xmlns:xlink="http://www.w3.org/1999/xlink" version="1.1" id="Layer_1" x="0px" y="0px" viewBox="0 0 512 512" style="enable-background:new 0 0 512 512;" xml:space="preserve">
<path style="fill:#F7CBA4;" d="M475.83,366.753v93.839H265.247v-93.839c0-26.35,16.191-48.933,39.162-58.326  c3.731-1.524,7.648-2.706,11.702-3.492h108.856c4.055,0.786,7.971,1.967,11.702,3.492C459.639,317.82,475.83,340.402,475.83,366.753  z"/>
<g>
	<path style="fill:#E0B394;" d="M342.9,304.935h-26.785c-28.983,5.643-50.863,31.181-50.863,61.817v93.843h26.785v-93.843   C292.037,336.116,313.917,310.578,342.9,304.935z"/>
	<path style="fill:#E0B394;" d="M436.669,308.427l-34.959,25.408c-18.583,13.504-43.751,13.504-62.343,0l-34.959-25.408   c3.731-1.524,7.648-2.706,11.702-3.492h108.856C429.022,305.721,432.938,306.904,436.669,308.427z"/>
</g>
<path style="fill:#F7CBA4;" d="M472.579,249.723c-3.861,8.756-9.873,17.115-14.51,24.642c-4.711,7.665-10.926,14.454-18.444,19.913  l-37.914,27.551c-18.583,13.504-43.751,13.504-62.343,0l-37.914-27.551c-7.481-5.44-13.688-12.201-18.399-19.83  c-2.558-4.156-5.837-8.571-9.051-13.162c-6.65-9.54-12.995-19.858-11.988-30.286l5.08-68.043  c4.526-46.874,56.359-90.504,103.444-90.504c23.543,0,47.002,10.907,65.142,27.672c18.14,16.773,30.959,39.401,33.222,62.834  l7.389,68.043C476.901,237.328,475.267,243.618,472.579,249.723z"/>
<g>
	<path style="fill:#E0B394;" d="M296.557,244.415c-0.637,10.779,2.872,21.382,9.818,29.648L346,322.756   c2.069,2.466,4.415,4.534,6.954,6.188c-4.766-1.662-9.347-4.045-13.587-7.121l-37.914-27.542   c-20.033-14.556-30.867-38.626-28.484-63.276l6.567-68.051c4.489-46.411,43.151-81.933,89.636-82.608   c-28.631,0.692-61.053,27.681-62.744,56.423L296.557,244.415z"/>
	<path style="fill:#E0B394;" d="M472.579,249.723c-0.047-1.533-0.148-3.076-0.295-4.618l-6.687-69.234   c-1.117-11.554-4.314-22.444-9.209-32.326c-6.409,17.262-23.035,29.564-42.523,29.564c-17.991,0-33.528-10.474-40.86-25.667   c-7.334,15.193-22.878,25.667-40.86,25.667c-7.776,0-15.11-1.967-21.511-5.422v-0.009c-9.634-5.19-17.16-13.771-21.013-24.134   c-4.895,9.882-8.091,20.772-9.209,32.326l-6.687,69.234c-0.527,5.459-0.425,10.88,0.277,16.182   c-6.65-9.54-12.995-19.858-11.988-30.286l5.08-68.043c4.526-46.874,56.359-90.504,103.444-90.504   c23.543,0,47.002,10.907,65.142,27.672c18.14,16.773,30.959,39.401,33.222,62.834l7.389,68.043   C476.901,237.328,475.267,243.618,472.579,249.723z"/>
</g>
<path style="fill:#666666;" d="M511.444,243.174c-2.992,18.029-18.121,31.939-36.335,33.481c-6.031,0.508-11.823-0.314-17.096-2.217  c7.906-12.792,11.601-27.995,10.104-43.437l-6.576-68.043c-1.099-11.36-4.239-22.065-9.051-31.772  c-3.611,9.735-10.538,17.872-19.405,23.025h-0.009c-6.576,3.842-14.224,6.031-22.379,6.031c-17.677,0-32.954-10.298-40.159-25.224  c-7.204,14.926-22.48,25.224-40.159,25.224c-7.648,0-14.852-1.931-21.141-5.329v-0.009c-9.467-5.098-16.865-13.531-20.652-23.719  c-4.812,9.707-7.953,20.412-9.051,31.772L272.959,231c-1.497,15.443,2.198,30.645,10.104,43.438  c-5.273,1.903-11.065,2.725-17.096,2.217c-18.213-1.542-33.342-15.452-36.335-33.481c-2.18-13.106,2.226-25.27,10.206-33.934  c10.779-11.693,17.068-26.812,17.068-42.707v-1.598c0-53.006,36.399-97.533,85.554-110.03c8.968-2.281,18.371-3.5,28.05-3.5h0.055  c62.695,0.019,113.604,50.844,113.604,113.53v1.598c0,15.896,6.29,31.015,17.068,42.707  C509.219,217.904,513.624,230.068,511.444,243.174z"/>
<path style="fill:#5E5E5E;" d="M309.238,154.907c-9.467-5.098-16.865-13.531-20.652-23.719c-4.812,9.707-7.953,20.411-9.051,31.772  l-6.576,68.043c-1.496,15.443,2.198,30.645,10.104,43.437c-5.273,1.903-11.065,2.725-17.096,2.217  c-18.213-1.542-33.342-15.452-36.335-33.481c-2.18-13.106,2.226-25.27,10.206-33.934c10.779-11.693,17.068-26.813,17.068-42.707  v-1.598c0-53.006,36.399-97.533,85.554-110.03C341.5,55.703,284.014,103.657,309.238,154.907z"/>
<rect x="306.118" y="377.58" style="fill:#FD5D65;" width="128.833" height="83.007"/>
<path style="fill:#4D4D4D;" d="M329.092,236.664c-3.826,0-6.927-3.101-6.927-6.927v-11.079c0-3.826,3.101-6.927,6.927-6.927  s6.927,3.101,6.927,6.927v11.079C336.019,233.563,332.918,236.664,329.092,236.664z"/>
<g>
	<path style="fill:#666666;" d="M427.162,197.415c-1.419,0-2.837-0.541-3.919-1.623c-3.183-3.183-7.416-4.937-11.918-4.937   c-4.501,0-8.735,1.753-11.918,4.937c-2.165,2.165-5.674,2.165-7.837,0c-2.165-2.163-2.165-5.673-0.001-7.837   c5.278-5.277,12.293-8.184,19.755-8.184c7.464,0,14.479,2.907,19.757,8.184c2.164,2.163,2.164,5.673-0.001,7.837   C429.998,196.874,428.58,197.415,427.162,197.415z"/>
	<path style="fill:#666666;" d="M344.929,197.415c-1.418,0-2.837-0.541-3.919-1.623c-6.571-6.572-17.266-6.573-23.837,0   c-2.164,2.165-5.673,2.165-7.837,0c-2.165-2.165-2.165-5.673,0-7.837c10.894-10.894,28.618-10.893,39.512,0   c2.165,2.165,2.165,5.673,0,7.837C347.766,196.875,346.348,197.415,344.929,197.415z"/>
</g>
<g>
	<path style="fill:#4D4D4D;" d="M411.325,236.664c-3.827,0-6.927-3.101-6.927-6.927v-11.079c0-3.826,3.101-6.927,6.927-6.927   c3.827,0,6.927,3.101,6.927,6.927v11.079C418.252,233.563,415.151,236.664,411.325,236.664z"/>
	<path style="fill:#4D4D4D;" d="M345.04,279.386c5.341,1.215,9.546,2.175,13.626,2.693c4.036,0.544,7.78,0.808,11.543,0.807   c3.762-0.014,7.502-0.277,11.535-0.824c4.077-0.519,8.28-1.471,13.633-2.674c-1.249,5.375-4.927,9.714-9.463,12.754   c-4.574,3.022-10.147,4.607-15.705,4.598c-5.557-0.008-11.127-1.59-15.697-4.617C349.978,289.08,346.302,284.749,345.04,279.386z"/>
</g>
<path style="fill:#E0B394;" d="M362.885,258.368l12.023-3.203c3.703-0.986,5.906-4.789,4.919-8.493l-8.194-30.753"/>
<path style="fill:#E54E5C;" d="M319.052,432.663c8.887,0.857,17.439,1.905,25.989,2.529c8.535,0.666,17.015,1.014,25.498,1.01  c8.483-0.009,16.962-0.356,25.496-1.023c8.55-0.627,17.1-1.67,25.991-2.515c-7.704,4.544-16.171,7.586-24.855,9.689  c-8.698,2.065-17.667,3.091-26.632,3.083c-8.966-0.004-17.933-1.031-26.63-3.095C335.226,440.233,326.759,437.196,319.052,432.663z"/>
<path style="fill:#5E5E5E;" d="M433.076,154.212c-6.576,3.842-14.224,6.031-22.379,6.031c-17.677,0-32.954-10.298-40.159-25.224  v-13.614C370.538,121.405,390.812,158.378,433.076,154.212z"/>
<g>
	<polyline style="fill:#E0B394;" points="306.12,377.585 306.12,358.378 314.281,377.585  "/>
	<polyline style="fill:#E0B394;" points="434.957,377.585 434.957,358.378 426.796,377.585  "/>
</g>
<path style="fill:#72CDED;" d="M223.225,339.796v120.799H12.643V339.796c0-30.636,21.88-56.174,50.863-61.817h108.856  C201.345,283.622,223.225,309.159,223.225,339.796z"/>
<g>
	<path style="fill:#5FBAD3;" d="M90.291,277.975H63.506c-28.983,5.643-50.863,31.181-50.863,61.817v120.799h26.785V339.792   C39.428,309.156,61.308,283.619,90.291,277.975z"/>
	<polygon style="fill:#5FBAD3;" points="167.264,282.597 166.063,290.549 159.044,337.228 135.908,320.797 124.371,312.605    117.934,308.033 111.497,312.605 99.96,320.797 76.824,337.228 69.804,290.549 68.604,282.597  "/>
</g>
<g>
	<path style="fill:#E0B394;" d="M20.569,201.726C9.116,201.217,0,191.769,0,180.196c0-11.896,9.643-21.547,21.547-21.547   c1.072,0,2.125,0.074,3.159,0.231"/>
	<path style="fill:#E0B394;" d="M215.285,201.726c11.453-0.508,20.578-9.957,20.578-21.53c0-11.896-9.651-21.547-21.557-21.547   c-1.072,0-2.134,0.083-3.159,0.231"/>
</g>
<path style="fill:#5BB0C4;" d="M167.264,282.597l-1.2,7.953l-16.957,12.321c-7.472,5.431-15.997,8.673-24.734,9.735l-6.437-4.572  l-6.437,4.572c-8.737-1.062-17.271-4.304-24.734-9.735L69.807,290.55l-1.2-7.953H167.264L167.264,282.597z"/>
<path style="fill:#F7CBA4;" d="M187.02,267.321l-37.914,27.542c-18.593,13.512-43.76,13.512-62.343,0l-37.914-27.542  c-20.042-14.556-30.876-38.626-28.494-63.276l5.172-53.523l1.403-14.529c0.822-8.488,2.78-16.616,5.736-24.227  c14.584-31.55,46.033-53.339,82.331-54.456c0.517-0.009,1.025-0.019,1.533-0.028c0.462-0.019,0.923-0.019,1.403-0.019  c24.18,0,46.393,9.181,63.129,24.383c9.301,8.451,16.911,18.758,22.241,30.387c2.891,7.537,4.812,15.572,5.625,23.958l1.413,14.657  l5.162,53.394C217.887,228.695,207.053,252.764,187.02,267.321z"/>
<g>
	<path style="fill:#E0B394;" d="M43.948,217.455c-0.637,10.779,2.872,21.382,9.818,29.648l39.625,48.693   c2.069,2.466,4.415,4.534,6.954,6.188c-4.766-1.662-9.347-4.045-13.587-7.121l-37.914-27.542   c-20.033-14.556-30.867-38.626-28.484-63.276l6.567-68.051c4.489-46.411,43.151-81.933,89.636-82.608   c-28.631,0.692-61.053,27.681-62.743,56.423L43.948,217.455z"/>
	<path style="fill:#E0B394;" d="M210.341,150.65c-16.967-23.571-35.198-8.045-72.485-8.045c-26.036,0-48.674-12.755-60.801-21.188   c-9.098,9.098-18.796,15.507-27.385,19.969c-11.046,5.726-20.291,8.248-24.144,9.134l1.403-14.529   c0.822-8.488,2.78-16.616,5.736-24.227c14.584-31.55,46.033-53.339,82.331-54.456c0.517-0.009,1.025-0.019,1.533-0.028   c0.462-0.019,0.923-0.019,1.404-0.019c24.18,0,46.393,9.181,63.129,24.383c9.301,8.451,16.911,18.758,22.241,30.387   c2.891,7.537,4.812,15.572,5.625,23.958L210.341,150.65z"/>
</g>
<path style="fill:#CE7C19;" d="M210.037,147.459c-17.16-27.478-34.839-11.018-72.707-11.018c-25.344,0-47.382-12.413-59.186-20.624  c-8.857,8.857-18.297,15.092-26.664,19.433c-14.048,7.287-25.104,9.245-25.372,9.292l0.822-8.543  c4.434-45.922,42.329-81.176,88.15-82.589c0.499-0.009,0.997-0.019,1.487-0.028c0.453-0.019,0.905-0.019,1.367-0.019  c23.543,0,45.165,8.94,61.457,23.736c16.293,14.805,27.275,35.467,29.537,58.898L210.037,147.459z"/>
<path style="fill:#AF6719;" d="M116.567,53.381c-28.631,0.693-61.059,27.681-62.75,56.424L51.48,135.25  c-14.048,7.287-25.104,9.245-25.372,9.292l0.822-8.543c4.434-45.922,42.329-81.176,88.15-82.589  C115.578,53.399,116.078,53.391,116.567,53.381z"/>
<rect x="148.327" y="377.469" style="fill:#5FBAD3;" width="28.902" height="9.236"/>
<path style="fill:#4D4D4D;" d="M76.488,209.468c-3.826,0-6.927-3.101-6.927-6.927v-11.079c0-3.826,3.101-6.927,6.927-6.927  c3.826,0,6.927,3.101,6.927,6.927v11.079C83.414,206.367,80.313,209.468,76.488,209.468z"/>
<g>
	<path style="fill:#CE7C19;" d="M174.558,170.218c-1.419,0-2.837-0.541-3.919-1.623c-3.183-3.183-7.416-4.937-11.918-4.937   c-4.501,0-8.735,1.753-11.918,4.937c-2.165,2.165-5.674,2.165-7.837,0c-2.165-2.163-2.165-5.673-0.001-7.837   c5.278-5.277,12.293-8.184,19.756-8.184c7.464,0,14.479,2.907,19.757,8.184c2.163,2.163,2.163,5.673-0.001,7.837   C177.393,169.677,175.976,170.218,174.558,170.218z"/>
	<path style="fill:#CE7C19;" d="M92.325,170.218c-1.418,0-2.837-0.541-3.919-1.623c-6.571-6.571-17.266-6.573-23.837,0   c-2.163,2.165-5.673,2.165-7.837,0c-2.165-2.165-2.165-5.673,0-7.837c10.894-10.894,28.618-10.893,39.512,0   c2.165,2.165,2.165,5.673,0,7.837C95.162,169.677,93.743,170.218,92.325,170.218z"/>
</g>
<g>
	<path style="fill:#4D4D4D;" d="M158.721,209.468c-3.827,0-6.927-3.101-6.927-6.927v-11.079c0-3.826,3.101-6.927,6.927-6.927   c3.827,0,6.927,3.101,6.927,6.927v11.079C165.647,206.367,162.546,209.468,158.721,209.468z"/>
	<path style="fill:#4D4D4D;" d="M92.436,247.571c5.341,1.215,9.546,2.175,13.626,2.693c4.036,0.544,7.78,0.808,11.542,0.807   c3.762-0.014,7.502-0.277,11.535-0.824c4.077-0.519,8.28-1.471,13.633-2.674c-1.249,5.375-4.927,9.714-9.463,12.754   c-4.574,3.022-10.147,4.607-15.705,4.598c-5.557-0.008-11.127-1.59-15.697-4.617C97.374,257.264,93.697,252.934,92.436,247.571z"/>
</g>
<path style="fill:#E0B394;" d="M110.281,231.17l12.023-3.203c3.703-0.986,5.906-4.789,4.919-8.492l-8.194-30.753"/>
<g>
	<polygon style="fill:#5FBAD3;" points="61.584,460.595 47.73,460.595 54.658,340.526  "/>
	<polygon style="fill:#5FBAD3;" points="188.119,460.595 174.265,460.595 181.192,340.526  "/>
</g>
<rect x="125.916" y="307.694" style="fill:#5BB0C4;" width="8.109" height="148.838"/>
<g>
</g>
<g>
</g>
<g>
</g>
<g>
</g>
<g>
</g>
<g>
</g>
<g>
</g>
<g>
</g>
<g>
</g>
<g>
</g>
<g>
</g>
<g>
</g>
<g>
</g>
<g>
</g>
<g>
</g>
</svg>
