<?xml version="1.0" encoding="iso-8859-1"?>
<!-- Generator: Adobe Illustrator 19.0.0, SVG Export Plug-In . SVG Version: 6.00 Build 0)  -->
<svg xmlns="http://www.w3.org/2000/svg" xmlns:xlink="http://www.w3.org/1999/xlink" version="1.1" id="Layer_1" x="0px" y="0px" viewBox="0 0 512 512" style="enable-background:new 0 0 512 512;" xml:space="preserve">
<path style="fill:#F4AAB6;" d="M261.767,512h-11.533c-75.05,0-135.89-60.84-135.89-135.89V135.89C114.343,60.84,175.183,0,250.233,0  h11.533c75.05,0,135.89,60.84,135.89,135.89v240.22C397.657,451.16,336.817,512,261.767,512z"/>
<path style="fill:#E28B9C;" d="M143.588,370.343V141.657c0-73.298,55.671-133.591,127.035-140.91C265.815,0.255,260.938,0,256,0l0,0  c-78.235,0-141.657,63.422-141.657,141.657v228.686C114.343,448.578,177.765,512,256,512l0,0c4.938,0,9.815-0.255,14.622-0.747  C199.259,503.934,143.588,443.641,143.588,370.343z"/>
<circle style="fill:#F7CBA4;" cx="256.001" cy="143.788" r="89.558"/>
<path style="fill:#E0B394;" d="M194.87,143.789c0-44.625,32.64-81.616,75.347-88.428c-4.632-0.739-9.378-1.135-14.217-1.135  c-49.464,0-89.564,40.099-89.564,89.564s40.099,89.564,89.564,89.564c4.84,0,9.586-0.396,14.217-1.135  C227.511,225.405,194.87,188.414,194.87,143.789z"/>
<g>
	<path style="fill:#B09ADC;" d="M256,239.782c-52.93,0-95.993-43.063-95.993-95.993c0-52.932,43.063-95.993,95.993-95.993   s95.993,43.063,95.993,95.993C351.994,196.72,308.932,239.782,256,239.782z M256,60.655c-45.84,0-83.134,37.294-83.134,83.134   S210.16,226.923,256,226.923s83.134-37.294,83.134-83.134C339.135,97.949,301.84,60.655,256,60.655z"/>
	<path style="fill:#B09ADC;" d="M234.533,334.209c-5.19,15.863-9.352,36.461-6.827,58.123l-22.597-11.69l-20.656,20.645   c0,0-2.724-13.116-2.934-30.605c-0.117-9.785,0.549-20.937,2.934-31.926l3.39-50.08l60.122,15.139   C247.965,303.815,240.554,315.844,234.533,334.209z"/>
	<path style="fill:#B09ADC;" d="M330.486,370.694c-0.21,17.477-2.934,30.593-2.934,30.593l-20.656-20.645l-22.597,11.69   c2.525-21.662-1.648-42.26-6.839-58.123c-6.02-18.365-13.432-30.394-13.432-30.394l19.277-9.878l5.109-2.619l25.683-13.163   l13.455,60.601C329.925,349.745,330.603,360.909,330.486,370.694z"/>
</g>
<g>
	<path style="fill:#807EAF;" d="M187.843,288.676l60.122,15.139c0,0-7.412,12.029-13.432,30.394h-8.522   c0,0-21.849,24.666-44.492,36.473c-0.117-9.785,0.549-20.937,2.934-31.926L187.843,288.676z"/>
	<path style="fill:#807EAF;" d="M330.486,370.694c-22.644-11.819-44.492-36.485-44.492-36.485h-8.534   c-6.02-18.365-13.432-30.394-13.432-30.394l19.277-9.878h2.689c0,0,0.865-0.97,2.42-2.619l25.683-13.163l13.455,60.601   C329.925,349.745,330.603,360.909,330.486,370.694z"/>
</g>
<path style="fill:#B09ADC;" d="M367.305,291.174c6.359,12.964,15.887,39.407-4.103,52.068  c-27.074,17.149-77.213-39.419-77.213-39.419h-59.982c0,0-50.127,56.568-77.201,39.419c-27.086-17.149,0-59.561,0-59.561  s-27.086-42.423,0-59.573c27.074-17.149,77.201,39.431,77.201,39.431h59.982c0,0,50.139-56.58,77.213-39.431  c19.99,12.66,10.463,39.115,4.103,52.079c-2.256,4.594-4.103,7.493-4.103,7.493S365.049,286.58,367.305,291.174z"/>
<path style="fill:#4D4D4D;" d="M224.184,182.321c6.755,1.533,12.07,2.744,17.228,3.396c5.102,0.686,9.833,1.018,14.588,1.017  c4.754-0.019,9.481-0.35,14.578-1.039c5.153-0.655,10.467-1.855,17.237-3.373c-1.576,6.799-6.225,12.285-11.959,16.13  c-5.783,3.823-12.829,5.826-19.857,5.815c-7.026-0.009-14.068-2.012-19.846-5.838C230.423,194.581,225.775,189.105,224.184,182.321z  "/>
<g>
	<path style="fill:#C99F83;" d="M231.098,152.183c-3.229,0-5.845-2.617-5.845-5.845c0-6.184-5.031-11.215-11.215-11.215   c-6.185,0-11.217,5.031-11.217,11.215c0,3.228-2.616,5.845-5.845,5.845s-5.845-2.617-5.845-5.845   c0-12.63,10.276-22.906,22.907-22.906c12.63,0,22.906,10.276,22.906,22.906C236.943,149.565,234.325,152.183,231.098,152.183z"/>
	<path style="fill:#C99F83;" d="M315.024,152.183c-3.229,0-5.845-2.617-5.845-5.845c0-6.184-5.031-11.215-11.215-11.215   c-6.184,0-11.215,5.031-11.215,11.215c0,3.228-2.616,5.845-5.845,5.845s-5.845-2.617-5.845-5.845   c0-12.63,10.276-22.906,22.906-22.906c12.63,0,22.906,10.276,22.906,22.906C320.869,149.565,318.252,152.183,315.024,152.183z"/>
</g>
<g>
	<rect x="226.016" y="263.541" style="fill:#807EAF;" width="59.982" height="30.769"/>
	<path style="fill:#807EAF;" d="M363.202,283.681c0,0,1.847,2.899,4.103,7.493l-43.499-7.493l43.499-7.493   C365.049,280.782,363.202,283.681,363.202,283.681z"/>
	<path style="fill:#807EAF;" d="M148.805,283.681c0,0-1.847,2.899-4.103,7.493l43.499-7.493l-43.499-7.493   C146.958,280.782,148.805,283.681,148.805,283.681z"/>
</g>
<g>
</g>
<g>
</g>
<g>
</g>
<g>
</g>
<g>
</g>
<g>
</g>
<g>
</g>
<g>
</g>
<g>
</g>
<g>
</g>
<g>
</g>
<g>
</g>
<g>
</g>
<g>
</g>
<g>
</g>
</svg>
