<?xml version="1.0" encoding="iso-8859-1"?>
<!-- Generator: Adobe Illustrator 19.0.0, SVG Export Plug-In . SVG Version: 6.00 Build 0)  -->
<svg xmlns="http://www.w3.org/2000/svg" xmlns:xlink="http://www.w3.org/1999/xlink" version="1.1" id="Layer_1" x="0px" y="0px" viewBox="0 0 511.999 511.999" style="enable-background:new 0 0 511.999 511.999;" xml:space="preserve">
<g>
	<path style="fill:#E0B394;" d="M125.007,219.629c-18.897-0.839-33.938-16.428-33.938-35.523c0-19.629,15.91-35.553,35.553-35.553   c1.768,0,3.505,0.122,5.212,0.381"/>
	<path style="fill:#E0B394;" d="M386.978,219.629c18.897-0.839,33.953-16.428,33.953-35.523c0-19.629-15.925-35.553-35.569-35.553   c-1.768,0-3.521,0.137-5.212,0.381"/>
</g>
<path style="fill:#62DCD2;" d="M326.591,323.347c37.59,7.319,65.968,40.441,65.968,80.174v108.478H119.441V403.521  c0-39.734,28.378-72.855,65.968-80.174H326.591z"/>
<path style="fill:#54CCC0;" d="M220.147,323.347h-34.739c-37.59,7.319-65.968,40.441-65.968,80.174v108.478h34.739V403.521  C154.179,363.787,182.557,330.666,220.147,323.347z"/>
<path style="fill:#F7CBA4;" d="M332.154,324.638c0.012,0.168,0.012,0.323,0.012,0.491c0,42.058-34.104,76.161-76.161,76.161  c-42.07,0-76.162-34.104-76.162-76.162c0-0.168,0-0.323,0.012-0.491"/>
<path style="fill:#54CCC0;" d="M181.34,511.999h-17.968v-82.055c0-4.962,4.023-8.984,8.984-8.984l0,0  c4.962,0,8.984,4.022,8.984,8.984V511.999z"/>
<path style="fill:#E0B394;" d="M332.172,325.129c0,3.893-0.287,7.726-0.85,11.464l-31.444,22.844  c-26.162,18.998-61.595,18.998-87.757,0l-31.409-22.82c-0.563-3.749-0.862-7.583-0.862-11.488c0-0.168,0-0.323,0.012-0.491H332.16  C332.172,324.806,332.172,324.962,332.172,325.129z"/>
<path style="fill:#54CCC0;" d="M348.627,511.999h-17.968v-82.055c0-4.962,4.022-8.984,8.984-8.984l0,0  c4.962,0,8.984,4.022,8.984,8.984V511.999z"/>
<path style="fill:#F7CBA4;" d="M212.126,340.263l-51.092-37.12c-29.542-21.464-45.303-57.122-41.291-93.417l6.575-59.475  C133.626,84.145,189.491,34.116,256,34.116l0,0c66.509,0,122.374,50.028,129.682,116.135l6.575,59.475  c4.013,36.295-11.749,71.953-41.291,93.417l-51.092,37.12C273.713,359.27,238.288,359.27,212.126,340.263z"/>
<path style="fill:#E0B394;" d="M256,34.116L256,34.116c-66.509,0-122.374,50.028-129.682,116.135l-6.575,59.475  c-4.013,36.295,11.749,71.953,41.291,93.417l51.092,37.12c13.07,9.496,28.453,14.248,43.838,14.255  c-11.745-0.01-23.489-4.76-33.468-14.255l-39.017-37.121c-22.56-21.464-34.596-57.122-31.532-93.417l5.02-59.475  C162.548,84.145,205.209,34.116,256,34.116L256,34.116"/>
<g>
	<path style="fill:#EFC19E;" d="M329.862,167.65c-2.299,0-4.599-0.877-6.352-2.632c-3.79-3.79-8.828-5.877-14.188-5.877   s-10.399,2.087-14.188,5.877c-3.509,3.509-9.197,3.509-12.705,0c-3.509-3.509-3.509-9.197,0-12.705   c14.829-14.83,38.958-14.829,53.786,0c3.509,3.509,3.509,9.197,0,12.705C334.461,166.774,332.161,167.65,329.862,167.65z"/>
	<path style="fill:#EFC19E;" d="M223.21,167.65c-2.299,0-4.599-0.877-6.352-2.632c-3.79-3.79-8.828-5.877-14.188-5.877   s-10.399,2.087-14.188,5.877c-3.509,3.509-9.197,3.509-12.705,0c-3.509-3.509-3.509-9.197,0-12.705   c14.829-14.83,38.958-14.83,53.786,0c3.509,3.509,3.509,9.197,0,12.705C227.809,166.774,225.51,167.65,223.21,167.65z"/>
</g>
<path style="fill:#4D4D4D;" d="M215.266,274.792c2.338,0.321,4.384,0.763,6.303,1.227c2.016,0.34,3.911,0.683,5.689,1.066  c1.823,0.316,3.636,0.508,5.291,0.852c1.721,0.223,3.413,0.377,4.998,0.656c6.502,0.743,12.46,1.097,18.449,1.094  c5.988-0.024,11.941-0.377,18.435-1.125c1.582-0.283,3.275-0.431,4.995-0.655c1.653-0.345,3.468-0.531,5.29-0.847  c1.78-0.379,3.676-0.719,5.694-1.055c1.921-0.46,3.971-0.896,6.315-1.212c-0.452,2.211-1.198,4.302-2.074,6.369  c-0.956,1.973-2.142,3.809-3.385,5.68c-1.34,1.726-2.831,3.367-4.403,4.969c-1.621,1.511-3.403,2.843-5.223,4.179  c-7.433,5.029-16.554,7.665-25.648,7.65c-9.093-0.012-18.208-2.647-25.635-7.682c-1.816-1.339-3.601-2.665-5.219-4.177  c-1.57-1.603-3.063-3.238-4.402-4.964c-1.245-1.868-2.432-3.701-3.39-5.67C216.473,279.084,215.723,276.998,215.266,274.792z"/>
<path style="fill:#E0B394;" d="M263.586,244.131h-15.174c-4.962,0-8.984-4.022-8.984-8.984s4.022-8.984,8.984-8.984h15.174  c4.962,0,8.984,4.022,8.984,8.984S268.549,244.131,263.586,244.131z"/>
<path style="fill:#666666;" d="M289.858,1.494c-1.185-0.325-2.393-0.648-3.62-0.892c-1.228-0.199-2.475-0.404-3.742-0.498  c-1.26-0.048-2.551-0.161-3.842-0.068c-2.597,0.05-5.219,0.539-7.857,1.24c-2.604,0.791-5.204,1.901-7.641,3.389  c-3.119,1.887-5.91,4.407-8.229,7.3c-1.398-1.511-2.917-2.908-4.559-4.142c-3.947-2.976-8.531-4.956-13.111-5.786  c-4.605-0.781-9.165-0.577-13.391,0.799c3.816,2.282,7.196,4.453,10.03,6.877c2.831,2.423,5.083,5.024,6.878,7.76  c1.774,2.758,3.167,5.622,4.22,8.658c0.526,1.514,0.979,3.061,1.339,4.614c0.189,0.773,0.355,1.55,0.478,2.311  c0.072,0.379,0.134,0.755,0.183,1.109l0.019,0.153c-0.012-0.153-0.023-0.308-0.026-0.453c-0.016-0.634,0.036-1.253,0.146-1.853  l-0.052,0.726c-0.02,0.443-0.038,0.708-0.04,1.435l17.876-0.878c-0.071-0.628-0.115-0.858-0.175-1.24l-0.174-0.949  c0.216,0.734,0.35,1.503,0.37,2.305l0.017,0.653c0.004,0.159,0.011-0.143,0.024-0.267l0.052-0.553  c0.038-0.383,0.097-0.792,0.157-1.201c0.111-0.822,0.273-1.658,0.459-2.484c0.356-1.663,0.858-3.28,1.447-4.836  c1.213-3.1,2.807-5.97,5.096-8.588c2.262-2.639,5.242-5.05,8.852-7.203c1.788-1.11,3.749-2.077,5.798-3.105  c1.033-0.477,2.093-0.951,3.172-1.472c1.086-0.474,2.196-0.942,3.33-1.519C292.207,2.316,291.044,1.908,289.858,1.494z"/>
<path style="fill:#FC8A5E;" d="M247.061,34.674l-0.047-0.359c0.017,0.214,0.038,0.429,0.066,0.625  C247.098,35.065,247.073,34.793,247.061,34.674z"/>
<g>
	<path style="fill:#C99F83;" d="M329.862,213.417c-1.532,0-3.067-0.585-4.235-1.754c-4.355-4.356-10.146-6.754-16.306-6.754   s-11.95,2.398-16.306,6.754c-2.337,2.338-6.132,2.338-8.469,0c-2.339-2.339-2.339-6.132,0-8.47   c6.617-6.617,15.417-10.262,24.776-10.262s18.159,3.644,24.776,10.262c2.339,2.339,2.339,6.132,0,8.47   C332.929,212.832,331.395,213.417,329.862,213.417z"/>
	<path style="fill:#C99F83;" d="M223.21,213.417c-1.533,0-3.065-0.585-4.236-1.754c-8.991-8.991-23.62-8.991-32.611,0   c-2.339,2.338-6.131,2.338-8.47,0c-2.339-2.339-2.339-6.132,0-8.47c13.662-13.661,35.89-13.661,49.552,0   c2.339,2.339,2.339,6.132,0,8.47C226.275,212.832,224.743,213.417,223.21,213.417z"/>
</g>
<g>
</g>
<g>
</g>
<g>
</g>
<g>
</g>
<g>
</g>
<g>
</g>
<g>
</g>
<g>
</g>
<g>
</g>
<g>
</g>
<g>
</g>
<g>
</g>
<g>
</g>
<g>
</g>
<g>
</g>
</svg>
