<?xml version="1.0" encoding="iso-8859-1"?>
<!-- Generator: Adobe Illustrator 19.0.0, SVG Export Plug-In . SVG Version: 6.00 Build 0)  -->
<svg xmlns="http://www.w3.org/2000/svg" xmlns:xlink="http://www.w3.org/1999/xlink" version="1.1" id="Layer_1" x="0px" y="0px" viewBox="0 0 511.999 511.999" style="enable-background:new 0 0 511.999 511.999;" xml:space="preserve">
<g>
	<path style="fill:#E0B394;" d="M127.107,224.711c-18.594-0.825-33.394-16.164-33.394-34.954c0-19.314,15.655-34.983,34.983-34.983   c1.74,0,3.449,0.12,5.128,0.375"/>
	<path style="fill:#E0B394;" d="M384.878,224.711c18.594-0.825,33.409-16.164,33.409-34.954c0-19.314-15.669-34.983-34.999-34.983   c-1.74,0-3.464,0.134-5.128,0.375"/>
</g>
<path style="fill:#F4AAB6;" d="M325.459,326.371c36.987,7.202,64.91,39.792,64.91,78.889v106.739H121.63V405.261  c0-39.097,27.923-71.687,64.91-78.889H325.459z"/>
<path style="fill:#E28B9C;" d="M220.722,326.371H186.54c-36.987,7.202-64.91,39.792-64.91,78.889v106.739h34.182V405.261  C155.812,366.164,183.735,333.573,220.722,326.371z"/>
<path style="fill:#F7CBA4;" d="M330.951,328.122c0,3.831-0.283,7.603-0.837,11.28c-5.445,36.032-36.551,63.661-74.104,63.661  c-37.553,0-68.646-27.616-74.092-63.637c-0.554-3.689-0.849-7.461-0.849-11.304c0-0.165,0-0.318,0.012-0.483h149.857  C330.951,327.804,330.951,327.957,330.951,328.122z"/>
<g>
	<path style="fill:#E28B9C;" d="M182.537,511.999h-17.68v-80.74c0-4.882,3.958-8.84,8.84-8.84l0,0c4.882,0,8.84,3.958,8.84,8.84   V511.999z"/>
	<path style="fill:#E28B9C;" d="M347.142,511.999h-17.68v-80.74c0-4.882,3.958-8.84,8.84-8.84l0,0c4.882,0,8.84,3.958,8.84,8.84   V511.999z"/>
</g>
<path style="fill:#E0B394;" d="M330.951,328.122c0,3.831-0.283,7.603-0.837,11.28l-30.94,22.477  c-25.742,18.694-60.608,18.694-86.35,0l-30.905-22.454c-0.554-3.689-0.849-7.461-0.849-11.304c0-0.165,0-0.318,0.012-0.483h149.857  C330.951,327.804,330.951,327.957,330.951,328.122z"/>
<path style="fill:#F7CBA4;" d="M349.444,306.493l-50.271,36.527c-25.742,18.694-60.608,18.694-86.35,0l-50.271-36.527  c-29.066-21.122-44.578-56.211-40.629-91.925l6.471-58.521c1.12-10.16,3.418-19.943,6.73-29.208v-0.012  c17.904-50.011,65.664-85.054,120.874-85.054c32.72,0,62.824,12.305,85.643,32.744c22.819,20.438,38.366,49.01,41.961,81.529  l2.098,18.989l4.373,39.533C394.022,250.282,378.511,285.371,349.444,306.493z"/>
<g>
	<path style="fill:#E0B394;" d="M256,41.778L256,41.778c-65.443,0-120.412,49.226-127.603,114.273l-6.47,58.521   c-3.949,35.713,11.56,70.8,40.629,91.919l50.273,36.525c12.861,9.343,27.997,14.019,43.135,14.026   c-11.557-0.009-23.113-4.684-32.931-14.026l-38.392-36.526c-22.198-21.12-34.041-56.207-31.026-91.919l4.94-58.521   C164.046,91.004,206.024,41.778,256,41.778L256,41.778"/>
	<path style="fill:#E0B394;" d="M385.701,175.035c-62.635,3.949-97.665-45.273-98.267-46.299   c-33.003,26.756-83.769,47.3-156.918,27.298c2.039-9.488,3.442-19.354,4.609-29.196v-0.012   c17.904-50.011,65.664-85.054,120.874-85.054c32.72,0,62.824,12.305,85.643,32.744c22.819,20.438,38.366,49.01,41.961,81.529   L385.701,175.035z"/>
</g>
<path style="fill:#FEC95B;" d="M330.338,65.488c-1.78,3.029-3.878,6.412-6.318,10.019c-4.102,6.082-9.17,12.836-15.264,19.731  c-6.058,6.872-13.142,13.897-21.322,20.533c-28.489,23.09-70.202,41.56-128.134,33.31c-9.182-1.297-18.776-3.277-28.783-6.011  c11.445-53.276,55.516-93.517,109.37-100.27c4.526-0.578,9.123-0.908,13.779-0.99c0.354-0.012,0.707-0.024,1.073-0.012  c0.413-0.012,0.837-0.012,1.261-0.012c17.963,0,35.136,3.713,50.754,10.431C315.109,55.811,323.007,60.278,330.338,65.488z"/>
<g>
	<path style="fill:#EAAE44;" d="M384.223,161.711c-65.405,6.624-96.18-44.896-96.793-45.945   c21.252-17.244,35.136-37.058,42.904-50.283c3.937,2.805,7.709,5.823,11.304,9.04c22.831,20.438,38.366,49.01,41.961,81.529   L384.223,161.711z"/>
	<path style="fill:#EAAE44;" d="M324.02,75.507c-4.102,6.082-9.17,12.836-15.264,19.731l-9.689-7.06l-7.32-0.778l-43.258-4.609   c-15.57-1.662-23.515-19.554-14.286-32.202l5.681-7.791c5.28-0.672,10.655-1.014,16.113-1.014c17.963,0,35.136,3.713,50.754,10.431   l4.031,9.088l2.982,6.73L324.02,75.507z"/>
</g>
<path style="fill:#D2B4EF;" d="M414.119,121.652l-23.904,32.791c-9.217,12.647-28.677,10.573-35.03-3.736l-17.645-39.78l-2.982-6.73  l-34.901-25.448l-7.32-0.778l-43.258-4.609c-15.57-1.662-23.515-19.554-14.286-32.202l23.892-32.803  c9.229-12.647,28.689-10.573,35.042,3.736l17.645,39.78l2.982,6.73l34.889,25.448l7.331,0.778l43.258,4.62  C415.415,91.101,423.348,109.005,414.119,121.652z"/>
<path style="fill:#B99ED8;" d="M356.575,84.83c-1.238,11.693-8.71,21.523-19.036,26.096l-2.982-6.73l-34.901-25.448l-7.32-0.778  c1.238-11.693,8.71-21.523,19.036-26.096l2.982,6.73l34.889,25.448L356.575,84.83z"/>
<circle style="fill:#D2B4EF;" cx="324.455" cy="81.399" r="24.941"/>
<path style="fill:#B99ED8;" d="M311.268,81.402c0-11.744,8.129-21.566,19.062-24.211c-1.887-0.456-3.848-0.725-5.876-0.725  c-13.772,0-24.936,11.164-24.936,24.936s11.164,24.936,24.936,24.936c2.027,0,3.989-0.269,5.876-0.725  C319.397,102.968,311.268,93.146,311.268,81.402z"/>
<path style="fill:#4D4D4D;" d="M215.919,278.99c2.301,0.316,4.314,0.751,6.202,1.207c1.984,0.335,3.848,0.672,5.598,1.049  c1.794,0.311,3.577,0.5,5.206,0.838c1.694,0.219,3.358,0.371,4.917,0.646c6.398,0.731,12.261,1.08,18.153,1.076  c5.892-0.024,11.749-0.371,18.14-1.107c1.557-0.278,3.223-0.424,4.915-0.645c1.627-0.339,3.412-0.522,5.205-0.833  c1.752-0.372,3.617-0.707,5.602-1.038c1.891-0.453,3.907-0.882,6.214-1.193c-0.444,2.176-1.179,4.233-2.04,6.267  c-0.941,1.941-2.107,3.748-3.331,5.589c-1.319,1.698-2.785,3.313-4.333,4.889c-1.595,1.486-3.349,2.797-5.139,4.112  c-7.314,4.948-16.288,7.542-25.237,7.527c-8.947-0.012-17.916-2.605-25.224-7.559c-1.787-1.318-3.543-2.623-5.135-4.11  c-1.545-1.577-3.014-3.186-4.332-4.884c-1.225-1.838-2.393-3.642-3.336-5.579C217.107,283.212,216.369,281.16,215.919,278.99z"/>
<path style="fill:#E0B394;" d="M263.464,248.819h-14.93c-4.882,0-8.84-3.958-8.84-8.84s3.958-8.84,8.84-8.84h14.93  c4.882,0,8.84,3.958,8.84,8.84S268.346,248.819,263.464,248.819z"/>
<path style="fill:#EAAE44;" d="M239.886,42.799c4.526-0.578,9.123-0.908,13.779-0.99c-47.147,1.45-86.704,46.711-94.365,107.272  c-9.182-1.297-18.776-3.277-28.783-6.011C141.961,89.793,186.032,49.552,239.886,42.799z"/>
<g>
	<path style="fill:#C99F83;" d="M328.678,218.599c-1.508,0-3.017-0.575-4.167-1.726c-4.286-4.286-9.983-6.645-16.044-6.645   c-6.061,0-11.759,2.36-16.044,6.645c-2.3,2.301-6.034,2.301-8.333,0c-2.302-2.302-2.302-6.034,0-8.334   c6.511-6.511,15.17-10.098,24.379-10.098c9.209,0,17.868,3.586,24.379,10.098c2.302,2.302,2.302,6.034,0,8.334   C331.696,218.022,330.186,218.599,328.678,218.599z"/>
	<path style="fill:#C99F83;" d="M223.736,218.599c-1.509,0-3.016-0.575-4.168-1.726c-8.847-8.847-23.241-8.847-32.088,0   c-2.302,2.301-6.032,2.301-8.334,0c-2.302-2.302-2.302-6.034,0-8.334c13.443-13.442,35.314-13.442,48.757,0   c2.302,2.302,2.302,6.034,0,8.334C226.752,218.022,225.244,218.599,223.736,218.599z"/>
</g>
<g>
</g>
<g>
</g>
<g>
</g>
<g>
</g>
<g>
</g>
<g>
</g>
<g>
</g>
<g>
</g>
<g>
</g>
<g>
</g>
<g>
</g>
<g>
</g>
<g>
</g>
<g>
</g>
<g>
</g>
</svg>
