<svg id="Capa_1" enable-background="new 0 0 512 512" height="512" viewBox="0 0 512 512" width="512" xmlns="http://www.w3.org/2000/svg"><g><path d="m91.002 177.36h29.997v127.279h-29.997z" fill="#704c55" transform="matrix(.707 -.707 .707 .707 -139.366 145.541)"/><path d="m121 256h-75v-30h45v-45h30z" fill="#704c55"/><path d="m343.672 224.123h124.656v30.003h-124.656z" fill="#5b362a" transform="matrix(.722 -.692 .692 .722 -52.519 347.649)"/><path d="m466 256h-75v-75h30v45h45z" fill="#5b362a"/><path d="m256 211c-82.842 0-150 67.158-150 150s67.158 151 150 151 150-68.158 150-151-67.158-150-150-150z" fill="#edf5ff"/><path d="m406 361c0-82.842-67.158-150-150-150v301c82.842 0 150-68.158 150-151z" fill="#d5e8fe"/><path d="m340.489 106h-84.489-84.489c-3.351 9.426-5.511 19.424-5.511 30 0 49.706 40.294 90 90 90s90-40.294 90-90c0-10.576-2.161-20.574-5.511-30z" fill="#edf5ff"/><path d="m346 136c0-10.576-2.161-20.574-5.511-30h-84.489v120c49.706 0 90-40.294 90-90z" fill="#d5e8fe"/><path d="m256 211h60v150h-60z" fill="#288c64"/><path d="m256 0h-75v106h75 75v-106z" fill="#704c55"/><path d="m256 0h75v106h-75z" fill="#5b362a"/><path d="m256 391h-15v30h15 15v-30z" fill="#704c55"/><path d="m256 391h15v30h-15z" fill="#5b362a"/><path d="m316 181h-60-60c-16.569 0-30 13.431-30 30 0 16.567 13.431 30 30 30h60 60c16.569 0 30-13.433 30-30 0-16.569-13.431-30-30-30z" fill="#8cd96b"/><path d="m346 211c0-16.569-13.431-30-30-30h-60v60h60c16.569 0 30-13.433 30-30z" fill="#5ab267"/><path d="m256 91h-105v30h105 105v-30z" fill="#704c55"/><path d="m256 91h105v30h-105z" fill="#5b362a"/></g></svg>