<?xml version="1.0" encoding="iso-8859-1"?>
<!-- Generator: Adobe Illustrator 19.0.0, SVG Export Plug-In . SVG Version: 6.00 Build 0)  -->
<svg xmlns="http://www.w3.org/2000/svg" xmlns:xlink="http://www.w3.org/1999/xlink" version="1.1" id="Layer_1" x="0px" y="0px" viewBox="0 0 512.001 512.001" style="enable-background:new 0 0 512.001 512.001;" xml:space="preserve">
<path style="fill:#E6E6E6;" d="M170.704,81.902c0,0.775-0.019,1.539-0.059,2.304c-1.196,24.9-21.762,44.71-46.945,44.71  c-25.193,0-45.759-19.812-46.955-44.71c-0.04-0.765-0.059-1.529-0.059-2.304c0-25.958,21.047-47.004,47.014-47.004  C149.658,34.896,170.704,55.944,170.704,81.902z"/>
<path style="fill:#D3D3D3;" d="M95.315,81.904c0-22.773,16.195-41.76,37.695-46.081c-3.011-0.605-6.124-0.926-9.312-0.926  c-25.961,0-47.007,21.046-47.007,47.007s21.046,47.007,47.007,47.007c3.188,0,6.302-0.321,9.312-0.926  C111.509,123.664,95.315,104.677,95.315,81.904z"/>
<path style="fill:#FD5D65;" d="M235.451,388.807v88.294H11.948v-88.294c0-29.017,18.498-53.729,44.339-62.963  c3.117-1.108,6.333-2,9.645-2.646h115.535c3.314,0.647,6.528,1.539,9.645,2.646C216.953,335.078,235.451,359.791,235.451,388.807z"/>
<g>
	<path style="fill:#E54E5C;" d="M94.357,323.2H65.929c-30.761,5.989-53.984,33.094-53.984,65.61v88.294h28.428v-88.294   C40.373,356.294,63.596,329.19,94.357,323.2z"/>
	<path style="fill:#E54E5C;" d="M191.114,325.844l-34.329,24.938c-19.732,14.332-46.446,14.332-66.168,0l-34.331-24.938   c3.117-1.108,6.333-2,9.645-2.646h115.536C184.781,323.844,187.997,324.736,191.114,325.844z"/>
</g>
<g>
	<path style="fill:#E0B394;" d="M21.831,239.371C9.675,238.831,0,228.802,0,216.52c0-12.626,10.234-22.87,22.87-22.87   c1.137,0,2.254,0.078,3.352,0.245"/>
	<path style="fill:#E0B394;" d="M225.553,239.371c12.155-0.539,21.841-10.567,21.841-22.851c0-12.626-10.244-22.87-22.88-22.87   c-1.137,0-2.265,0.088-3.352,0.245"/>
</g>
<path style="fill:#F7CBA4;" d="M166.361,302.523v54.455c0,23.566-19.106,42.661-42.661,42.661  c-23.566,0-42.661-19.095-42.661-42.661v-54.455H166.361z"/>
<path style="fill:#E0B394;" d="M166.361,302.523v41.299l-9.578,6.96c-19.732,14.342-46.446,14.342-66.168,0l-9.578-6.96v-41.299  H166.361z"/>
<path style="fill:#F7CBA4;" d="M90.612,338.226l-40.24-29.236c-21.264-15.45-32.767-40.997-30.24-67.16l6.979-72.226  c4.807-49.744,46.609-87.701,96.585-87.701l0,0c49.976,0,91.779,37.957,96.585,87.701l6.979,72.226  c2.528,26.162-8.975,51.71-30.24,67.16l-40.24,29.236C137.053,352.56,110.34,352.56,90.612,338.226z"/>
<path style="fill:#E0B394;" d="M45.173,256.064c-0.677,11.44,3.048,22.694,10.42,31.467l42.057,51.68  c2.196,2.617,4.686,4.814,7.381,6.568c-5.059-1.764-9.92-4.293-14.42-7.558l-40.241-29.232  c-21.262-15.45-32.761-40.995-30.232-67.159l6.97-72.227c4.764-49.259,45.799-86.96,95.136-87.676  c-30.388,0.736-64.798,29.38-66.592,59.886L45.173,256.064z"/>
<path style="fill:#D3D3D3;" d="M170.645,84.204c-1.196,24.9-21.762,44.71-46.945,44.71c-25.193,0-45.759-19.812-46.955-44.71  c13.322-7.372,28.516-11.694,44.622-12.077c0.294-0.01,0.588-0.01,0.882-0.01c0.48-0.019,0.961-0.019,1.451-0.019  C140.669,72.099,156.695,76.47,170.645,84.204z"/>
<path style="fill:#E6E6E6;" d="M221.453,181.657c-46.358,0-72.256-49.327-72.256-49.327s-21.645,40.044-96.264,39.093  c-7.99-0.098-16.567-0.677-25.811-1.814h-0.01c4.735-48.975,45.319-86.52,94.254-87.676c0.294-0.01,0.588-0.01,0.882-0.01  c0.48-0.019,0.961-0.019,1.451-0.019c24.988,0,47.936,9.49,65.228,25.193c17.302,15.714,28.958,37.633,31.359,62.512  L221.453,181.657z"/>
<path style="fill:#D3D3D3;" d="M122.249,81.923c-30.389,0.735-64.806,29.379-66.6,59.885l-2.715,29.614  c-7.99-0.098-16.567-0.677-25.811-1.814h-0.01c4.735-48.975,45.319-86.52,94.254-87.676  C121.66,81.923,121.955,81.923,122.249,81.923z"/>
<g>
	<circle style="fill:#D7E9F4;" cx="166.13" cy="235.805" r="27.448"/>
	<circle style="fill:#D7E9F4;" cx="81.269" cy="235.805" r="27.448"/>
</g>
<g>
	<path style="fill:#B6CDD8;" d="M172.004,236.786h-11.759c-3.248,0-5.882-2.634-5.882-5.882c0-3.248,2.634-5.882,5.882-5.882h11.759   c3.248,0,5.882,2.634,5.882,5.882C177.886,234.153,175.251,236.786,172.004,236.786z"/>
	<path style="fill:#B6CDD8;" d="M87.149,236.786H75.39c-3.248,0-5.882-2.634-5.882-5.882c0-3.248,2.634-5.882,5.882-5.882h11.759   c3.248,0,5.882,2.634,5.882,5.882C93.031,234.153,90.397,236.786,87.149,236.786z"/>
</g>
<path style="fill:#E0B394;" d="M115.925,276.018l12.762-3.4c3.93-1.047,6.268-5.082,5.221-9.014l-8.697-32.64"/>
<path style="fill:#ED7C58;" d="M227.842,206.237c-1.769-2.049-4.863-2.277-6.912-0.509l-23.875,20.6  c-4.061-13.227-16.389-22.871-30.93-22.871c-16.171,0-29.609,11.928-31.978,27.448h-20.899  c-2.368-15.52-15.807-27.448-31.978-27.448c-14.54,0-26.868,9.644-30.93,22.871l-23.875-20.6c-2.049-1.769-5.145-1.541-6.912,0.509  c-1.769,2.05-1.541,5.145,0.509,6.913l28.952,24.98c1.196,16.755,15.201,30.025,32.257,30.025c16.171,0,29.609-11.928,31.978-27.448  h20.899c2.368,15.52,15.807,27.448,31.978,27.448c17.055,0,31.06-13.27,32.257-30.025l28.952-24.98  C229.382,211.382,229.611,208.287,227.842,206.237z M81.269,258.352c-12.432,0-22.546-10.114-22.546-22.546  s10.114-22.546,22.546-22.546s22.546,10.114,22.546,22.546S93.701,258.352,81.269,258.352z M166.124,258.352  c-12.432,0-22.546-10.114-22.546-22.546s10.114-22.546,22.546-22.546s22.546,10.114,22.546,22.546S178.556,258.352,166.124,258.352z  "/>
<g>
	<polygon style="fill:#E54E5C;" points="63.893,477.101 49.188,477.101 56.541,383.7  "/>
	<polygon style="fill:#E54E5C;" points="198.191,477.101 183.487,477.101 190.84,383.7  "/>
</g>
<path style="fill:#4D4D4D;" d="M96.984,288.678c5.669,1.29,10.131,2.309,14.461,2.858c4.284,0.577,8.257,0.857,12.251,0.856  c3.993-0.015,7.963-0.295,12.243-0.875c4.327-0.551,8.788-1.562,14.47-2.838c-1.326,5.706-5.229,10.31-10.044,13.536  c-4.855,3.208-10.77,4.889-16.668,4.88c-5.898-0.008-11.809-1.687-16.66-4.9C102.226,298.967,98.324,294.37,96.984,288.678z"/>
<path style="fill:#AD653D;" d="M500.058,348.893v128.211H276.555V348.893c0-32.516,23.222-59.621,53.984-65.61h115.535  c0.01,0,0.01,0,0.019,0c6.666,1.303,12.978,3.588,18.772,6.715C485.815,301.29,500.058,323.435,500.058,348.893z"/>
<path style="fill:#965535;" d="M358.964,283.279h-28.428c-30.761,5.989-53.984,33.094-53.984,65.61V477.1h28.428V348.889  C304.98,316.374,328.202,289.268,358.964,283.279z"/>
<g>
	<path style="fill:#E0B394;" d="M286.438,202.353c-12.155-0.539-21.831-10.567-21.831-22.851c0-12.626,10.234-22.87,22.87-22.87   c1.137,0,2.254,0.078,3.352,0.245"/>
	<path style="fill:#E0B394;" d="M490.16,202.353c12.155-0.539,21.841-10.567,21.841-22.851c0-12.626-10.244-22.87-22.88-22.87   c-1.137,0-2.265,0.088-3.352,0.245"/>
</g>
<path style="fill:#F7CBA4;" d="M355.219,301.21l-40.24-29.236c-21.264-15.45-32.767-40.997-30.24-67.16l6.979-72.226  c4.807-49.744,46.609-87.701,96.585-87.701l0,0c49.976,0,91.779,37.957,96.585,87.701l6.979,72.226  c2.528,26.162-8.975,51.71-30.24,67.16l-40.24,29.236C401.66,315.543,374.947,315.543,355.219,301.21z"/>
<g>
	<path style="fill:#E0B394;" d="M357.895,196.829c0,0,2.956,20.314-22.041,27.667c0,0,17.657-15.956,10.293-25.487"/>
	<path style="fill:#E0B394;" d="M309.78,219.047c-0.677,11.44,3.048,22.694,10.42,31.467l42.057,51.68   c2.196,2.617,4.686,4.814,7.382,6.568c-5.059-1.764-9.92-4.293-14.42-7.558l-40.241-29.232   c-21.262-15.45-32.761-40.995-30.232-67.159l6.97-72.227c4.764-49.259,45.799-86.96,95.136-87.676   c-30.389,0.735-64.799,29.379-66.593,59.885L309.78,219.047z"/>
</g>
<path style="fill:#808080;" d="M350.544,204.181h-11.759c-4.06,0-7.352-3.291-7.352-7.352s3.291-7.352,7.352-7.352h11.759  c4.06,0,7.352,3.291,7.352,7.352S354.604,204.181,350.544,204.181z"/>
<path style="fill:#E0B394;" d="M418.71,196.829c0,0-2.956,20.314,22.041,27.667c0,0-17.657-15.956-10.293-25.487"/>
<g>
	<path style="fill:#E6E6E6;" d="M448.752,173.794c-1.63,0-3.262-0.622-4.505-1.866c-6.786-6.783-17.823-6.783-24.608,0   c-2.488,2.489-6.523,2.488-9.011,0s-2.488-6.523,0.001-9.011c11.752-11.753,30.877-11.753,42.629,0   c2.489,2.488,2.489,6.523,0.001,9.011C452.013,173.172,450.382,173.794,448.752,173.794z"/>
	<path style="fill:#E6E6E6;" d="M361.474,173.794c-1.631,0-3.262-0.622-4.505-1.866c-6.785-6.785-17.823-6.785-24.607,0   c-2.488,2.488-6.523,2.488-9.011,0c-2.488-2.488-2.488-6.523,0-9.011c11.753-11.753,30.877-11.753,42.63,0   c2.488,2.488,2.488,6.523,0,9.011C364.735,173.172,363.104,173.794,361.474,173.794z"/>
</g>
<rect x="382.429" y="320.073" style="fill:#965535;" width="11.763" height="157.026"/>
<path style="fill:#808080;" d="M437.823,204.181h-11.76c-4.06,0-7.352-3.291-7.352-7.352s3.291-7.352,7.352-7.352h11.76  c4.06,0,7.352,3.291,7.352,7.352S441.883,204.181,437.823,204.181z"/>
<path style="fill:#965535;" d="M464.906,290.36c0,0-0.01,3.863-1.127,9.645c-2.568,13.449-11.087,37.29-39.202,46.887l-4.902-15.685  l-31.369,37.25l-31.368-37.249l-4.902,15.685c-28.114-9.597-36.633-33.437-39.211-46.887c-1.117-5.784-1.127-9.645-1.127-9.645  c22.899,10.284,53.494,13.891,69.884-7.077c2.646-3.373,4.911-7.382,6.725-12.096c2.304,6,6.107,9.793,10.832,12.096  c12.851,6.283,32.476,1.519,46.955,0c6.666,1.303,12.978,3.588,18.772,6.715C464.886,290.115,464.895,290.233,464.906,290.36z"/>
<g>
	<path style="fill:#E6E6E6;" d="M482.178,268.843c-4.784,3.618-10.714,7.117-17.273,10.068   c-26.585,11.939-63.532,14.88-76.599-19.175c-9.029,23.497-29.419,29.379-49.926,26.85c-9.215-1.137-18.449-3.98-26.683-7.676   c-6.559-2.95-12.488-6.45-17.273-10.068c20.35,0,28.526-21.772,49.367-34.839c0.01-0.01,0.019-0.019,0.019-0.019   c2.803-1.764,5.843-3.362,9.176-4.735c12.852-5.294,22.242-3.304,28.644,0.402c2.794,1.617,5.059,3.863,6.695,6.49   c1.764-2.803,4.235-5.195,7.293-6.852c6.381-3.471,15.567-5.156,28.007-0.04C451.662,240.797,459.092,268.843,482.178,268.843z"/>
	<path style="fill:#E6E6E6;" d="M464.906,278.911c0,0-0.01,3.863-1.127,9.645c-2.568,13.449-11.087,37.29-39.202,46.887   l-4.902-15.685l-31.369,37.25l-31.369-37.25l-2.95,9.44l-1.951,6.245c-28.114-9.597-36.633-33.437-39.211-46.887   c-1.117-5.784-1.127-9.645-1.127-9.645c7.323,3.293,15.429,5.891,23.614,7.225c21.517,3.53,43.515-1.726,52.995-26.398   C401.373,293.792,438.321,290.851,464.906,278.911z"/>
</g>
<path style="fill:#CCCCCC;" d="M464.906,278.911c0,0-0.01,3.863-1.127,9.645c-26.488,11.518-62.59,13.9-75.472-19.674  c-12.89,33.575-48.994,31.193-75.482,19.674c-1.117-5.784-1.127-9.645-1.127-9.645c26.585,11.939,63.532,14.88,76.609-19.175  C401.373,293.792,438.321,290.851,464.906,278.911z"/>
<g>
	<path style="fill:#E6E6E6;" d="M484.119,116.721c-0.419,0-0.844-0.036-1.272-0.111l-28.12-4.902   c-3.999-0.697-6.677-4.505-5.98-8.506c0.698-4,4.497-6.678,8.506-5.98l28.12,4.902c3.999,0.697,6.677,4.505,5.98,8.506   C490.729,114.202,487.625,116.721,484.119,116.721z"/>
	<path style="fill:#E6E6E6;" d="M490.264,143.632c-0.45,0-0.907-0.042-1.366-0.128l-26.107-4.902   c-3.991-0.749-6.619-4.591-5.87-8.583c0.749-3.991,4.591-6.619,8.583-5.87l26.108,4.902c3.991,0.749,6.619,4.591,5.87,8.583   C496.818,141.168,493.731,143.632,490.264,143.632z"/>
	<path style="fill:#E6E6E6;" d="M292.486,116.721c-3.507,0-6.612-2.518-7.234-6.091c-0.697-4,1.98-7.808,5.98-8.506l28.12-4.902   c4.006-0.699,7.808,1.98,8.506,5.98c0.697,4-1.98,7.808-5.98,8.506l-28.121,4.902C293.33,116.685,292.905,116.721,292.486,116.721z   "/>
	<path style="fill:#E6E6E6;" d="M286.341,143.632c-3.469,0-6.554-2.464-7.217-5.997c-0.75-3.99,1.878-7.833,5.87-8.583l26.107-4.902   c3.991-0.749,7.834,1.879,8.583,5.87c0.75,3.99-1.878,7.833-5.87,8.583l-26.107,4.902   C287.248,143.592,286.79,143.632,286.341,143.632z"/>
</g>
<g>
	<polygon style="fill:#965535;" points="328.499,477.104 313.795,477.104 321.148,349.667  "/>
	<polygon style="fill:#965535;" points="462.798,477.104 448.094,477.104 455.447,349.667  "/>
</g>
<path style="fill:#E0B394;" d="M388.325,236.143l12.762-3.4c3.93-1.047,6.268-5.083,5.221-9.014l-8.697-32.64"/>
<g>
	<circle style="fill:#4D4D4D;" cx="412.337" cy="376.454" r="7.352"/>
	<circle style="fill:#4D4D4D;" cx="412.337" cy="411.004" r="7.352"/>
	<circle style="fill:#4D4D4D;" cx="412.337" cy="445.701" r="7.352"/>
</g>
<g>
	<path style="fill:#CCCCCC;" d="M353.988,329.199l-1.951,6.245c-28.114-9.597-36.633-33.437-39.211-46.887   c-1.117-5.784-1.127-9.645-1.127-9.645c7.323,3.293,15.429,5.891,23.614,7.225c0.363,1.255,0.549,2.608,0.549,4.039   C335.861,312.661,348.194,324.759,353.988,329.199z"/>
	<path style="fill:#CCCCCC;" d="M322.628,271.058c2.461,8.214,10.244,13.047,15.753,15.528c-9.215-1.137-18.449-3.98-26.683-7.676   c-6.559-2.95-12.488-6.45-17.273-10.068c20.35,0,28.526-21.772,49.367-34.839C343.086,234.671,318.737,258.07,322.628,271.058z"/>
</g>
<g>
</g>
<g>
</g>
<g>
</g>
<g>
</g>
<g>
</g>
<g>
</g>
<g>
</g>
<g>
</g>
<g>
</g>
<g>
</g>
<g>
</g>
<g>
</g>
<g>
</g>
<g>
</g>
<g>
</g>
</svg>
